<?xml version="1.0" standalone="no"?><!DOCTYPE svg PUBLIC "-//W3C//DTD SVG 1.1//EN" "http://www.w3.org/Graphics/SVG/1.1/DTD/svg11.dtd"><svg t="1545029088567" class="icon" style="" viewBox="0 0 1024 1024" version="1.1" xmlns="http://www.w3.org/2000/svg" p-id="44448" xmlns:xlink="http://www.w3.org/1999/xlink" width="200" height="200"><defs><style type="text/css"></style></defs><path d="M511.998977 962.922946c-248.287853 0-449.609021-201.86659-449.609021-450.967972 0-249.009284 201.321168-450.878944 449.609021-450.878944 248.374834 0 449.611068 201.868637 449.611068 450.878944C961.610044 761.056356 760.372787 962.922946 511.998977 962.922946L511.998977 962.922946zM511.998977 130.47768c-210.099089 0-380.481617 170.83176-380.481617 381.477294 0 210.736609 170.382529 381.569392 380.481617 381.569392 210.103182 0 380.483664-170.832783 380.483664-381.569392C892.482641 301.30944 722.102159 130.47768 511.998977 130.47768L511.998977 130.47768zM511.814782 684.415838c-33.745569 0-60.98291-12.93766-81.702813-38.998199-20.62883-25.968441-31.035854-72.386634-31.035854-139.073452 0-65.417919 11.397584-112.560612 34.112935-141.333936 18.819624-23.707958 44.970214-35.560914 78.624708-35.560914 33.57263 0 59.904345 12.035104 78.81095 36.103266 22.532179 28.411073 33.844829 75.644841 33.844829 141.516084 0 65.782216-11.401678 113.013937-34.114982 141.78726C571.627029 672.562882 545.388435 684.415838 511.814782 684.415838L511.814782 684.415838zM548.82572 423.0092c-4.073782-15.20019-9.320273-25.425066-15.561417-30.582529-6.243191-5.157463-13.396101-7.691169-21.449521-7.691169-8.140401 0-15.289218 2.533706-21.624507 7.691169-6.329149 5.157463-11.215436 14.386662-14.746866 27.596522-4.614088 17.282618-6.878664 46.238091-6.878664 87.045495 0 40.807405 2.081405 68.768223 6.15621 84.058464 4.161786 15.201214 9.320273 25.426089 15.559371 30.401404 6.245238 5.068436 13.394055 7.602142 21.534456 7.602142 8.054443 0 15.295358-2.533706 21.63167-7.691169 6.327102-5.067412 11.217483-14.296611 14.655791-27.598568 4.616134-17.10047 6.968715-45.964868 6.968715-86.773296C555.070958 466.262306 552.990576 438.301488 548.82572 423.0092L548.82572 423.0092z" p-id="44449"></path></svg>